<?xml version="1.0" encoding="UTF-8" standalone="no"?>
<!DOCTYPE svg PUBLIC "-//W3C//DTD SVG 20010904//EN"
"http://www.w3.org/TR/2001/REC-SVG-20010904/DTD/svg10.dtd">
<!-- Created with Sodipodi ("http://www.sodipodi.com/") -->
<svg
   version="1"
   x="0.00000000"
   y="0.00000000"
   width="625.000000"
   height="625.000000"
   id="svg548"
   xmlns="http://www.w3.org/2000/svg"
   xmlns:xlink="http://www.w3.org/1999/xlink"
   xmlns:sodipodi="http://sodipodi.sourceforge.net/DTD/sodipodi-0.dtd"
   sodipodi:version="0.32"
   sodipodi:docname="/home/dan/icons/gossip-gloss/emoticon-face11.svg"
   sodipodi:docbase="/home/dan/icons/gossip-gloss/">
  <sodipodi:namedview
     id="base" />
  <defs
     id="defs550">
    <linearGradient
       x1="0.00000000"
       y1="0.00000000"
       x2="1.00000000"
       y2="0.00000000"
       id="linearGradient783"
       gradientUnits="objectBoundingBox"
       spreadMethod="pad">
      <stop
         style="stop-color:#758fad;stop-opacity:1;"
         offset="0.00000000"
         id="stop784" />
      <stop
         style="stop-color:#304d6a;stop-opacity:1;"
         offset="1.00000000"
         id="stop785" />
    </linearGradient>
    <linearGradient
       x1="0.00000000"
       y1="0.00000000"
       x2="1.00000000"
       y2="0.00000000"
       id="linearGradient560"
       gradientUnits="objectBoundingBox"
       spreadMethod="pad">
      <stop
         style="stop-color:#ffffff;stop-opacity:1;"
         offset="0.00000000"
         id="stop561" />
      <stop
         style="stop-color:#ffffff;stop-opacity:0;"
         offset="1.00000000"
         id="stop562" />
    </linearGradient>
    <linearGradient
       x1="0.00000000"
       y1="0.00000000"
       x2="1.00000000"
       y2="0.00000000"
       id="linearGradient552"
       gradientUnits="objectBoundingBox"
       spreadMethod="pad">
      <stop
         style="stop-color:#fff59e;stop-opacity:1;"
         offset="0.00000000"
         id="stop553" />
      <stop
         style="stop-color:#d1940c;stop-opacity:1;"
         offset="1.00000000"
         id="stop554" />
    </linearGradient>
    <linearGradient
       x1="-0.00847780"
       y1="0.03870890"
       x2="0.61864400"
       y2="0.50322586"
       id="linearGradient555"
       xlink:href="#linearGradient560"
       gradientUnits="objectBoundingBox"
       spreadMethod="pad" />
    <radialGradient
       cx="0.93846154"
       cy="0.94531238"
       fx="0.93846154"
       fy="0.94531238"
       r="1.10782826"
       id="radialGradient556"
       xlink:href="#linearGradient552"
       gradientUnits="objectBoundingBox"
       spreadMethod="pad" />
    <linearGradient
       x1="0.01020272"
       y1="0.03906216"
       x2="0.48979592"
       y2="0.49218750"
       id="linearGradient563"
       xlink:href="#linearGradient560"
       gradientUnits="objectBoundingBox"
       spreadMethod="pad" />
    <radialGradient
       cx="0.95588255"
       cy="0.94532001"
       fx="0.95588255"
       fy="0.94532001"
       r="1.06457138"
       id="radialGradient565"
       xlink:href="#linearGradient783"
       gradientUnits="objectBoundingBox"
       spreadMethod="pad" />
  </defs>
  <ellipse
     cx="398.217926"
     cy="352.785370"
     rx="237.742035"
     ry="237.742035"
     transform="matrix(1.151653,0.000000,0.000000,1.151653,-135.6359,-78.01025)"
     style="font-size:12;opacity:0.497647;fill:#545147;fill-rule:evenodd;stroke-width:25;"
     id="path564" />
  <ellipse
     cx="398.217926"
     cy="352.785370"
     rx="237.742035"
     ry="237.742035"
     transform="matrix(1.122443,0.000000,0.000000,1.122443,-135.7044,-84.48975)"
     style="font-size:12;fill:url(#radialGradient556);fill-rule:evenodd;stroke:#7f4200;stroke-width:25;stroke-opacity:1;"
     id="path551" />
  <path
     d="M 213.052 500.032 C 182.146 484.579 42.2451 372.109 123.626 205.385 C 233.383 21.4103 426.794 110.56 449.637 140.372 C 290.275 97.8206 215.18 169.454 174.311 232.236 C 137.461 301.364 117.712 359.399 213.052 500.032 z "
     transform="matrix(1.122443,0.000000,0.000000,1.122443,-35.45951,-31.01288)"
     style="font-size:12;opacity:0.524118;fill:url(#linearGradient563);fill-rule:evenodd;stroke:url(#linearGradient555);stroke-width:1pt;"
     id="path559" />
  <ellipse
     cx="246.875092"
     cy="204.999847"
     rx="36.875023"
     ry="36.250000"
     transform="matrix(1.360835,0.000000,0.000000,0.952364,-91.10025,35.44029)"
     style="font-size:12;fill:#7f4200;fill-rule:evenodd;stroke-width:1pt;"
     id="path601" />
  <ellipse
     cx="246.875092"
     cy="204.999847"
     rx="36.875023"
     ry="36.250000"
     transform="matrix(1.360835,0.000000,0.000000,0.952364,48.95313,34.41933)"
     style="font-size:12;fill:#7f4200;fill-rule:evenodd;stroke-width:1pt;"
     id="path602" />
  <path
     d="M 447.809 383.991 C 455.309 421.491 372.5 472.5 308.75 471.25 C 245 470 179.555 425.008 179.555 396.258 C 194.555 422.508 246.25 431.25 310 430 C 373.75 428.75 427.809 416.491 447.809 383.991 z "
     transform="matrix(-1.239556,-1.210354e-2,1.381674e-2,-1.415009,702.8712,1028.971)"
     style="font-size:12;fill:#7f4200;fill-rule:evenodd;stroke-width:1pt;"
     id="path603" />
  <path
     d="M 495.207 380.391 C 495.207 413.61 470.575 453.275 435.304 453.275 C 400.032 453.275 381.39 409.616 379.393 374.401 C 377.396 341.182 416.006 317.492 435.304 231.629 C 454.601 317.492 497.204 337.188 495.207 380.391 z "
     transform="translate(-23.11001,18.42926)"
     style="font-size:12;fill:url(#radialGradient565);fill-rule:evenodd;stroke:#233f5e;stroke-width:15.625;stroke-linejoin:round;"
     id="path833" />
  <path
     d="M 409.601 313.392 C 410.73 303.341 411.255 293.893 407.56 285.651 C 401.023 293.893 375.728 340.503 368.339 368.356 C 366.633 383.704 372.602 399.904 372.602 399.904 C 372.602 399.904 375.16 377.735 379.423 367.504 C 388.234 345.051 406.199 328.584 409.601 313.392 z "
     style="font-size:12;opacity:0.515625;fill:#f3f3f3;fill-rule:evenodd;stroke:#ffffff;stroke-width:1pt;"
     id="path798"
     transform="translate(5.990410,15.97443)" />
</svg>
