<?xml version="1.0" encoding="UTF-8" standalone="no"?>
<!DOCTYPE svg PUBLIC "-//W3C//DTD SVG 20010904//EN"
"http://www.w3.org/TR/2001/REC-SVG-20010904/DTD/svg10.dtd">
<!-- Created with Sodipodi ("http://www.sodipodi.com/") -->
<svg
   version="1"
   x="0.00000000"
   y="0.00000000"
   width="625.000000"
   height="625.000000"
   id="svg860"
   sodipodi:version="0.32"
   sodipodi:docname="/home/dan/icons/gossip-gloss/message.svg"
   sodipodi:docbase="/home/dan/icons/gossip-gloss/"
   xmlns="http://www.w3.org/2000/svg"
   xmlns:sodipodi="http://sodipodi.sourceforge.net/DTD/sodipodi-0.dtd"
   xmlns:xlink="http://www.w3.org/1999/xlink">
  <sodipodi:namedview
     id="base" />
  <defs
     id="defs862">
    <linearGradient
       x1="0.00000000"
       y1="0.00000000"
       x2="1.00000000"
       y2="0.00000000"
       id="linearGradient877"
       gradientUnits="objectBoundingBox"
       spreadMethod="pad">
      <stop
         style="stop-color:#5c594f;stop-opacity:1;"
         offset="0.000000"
         id="stop878" />
      <stop
         style="stop-color:#3f3d33;stop-opacity:1;"
         offset="1.000000"
         id="stop879" />
    </linearGradient>
    <linearGradient
       x1="0.00000000"
       y1="0.00000000"
       x2="1.00000000"
       y2="0.00000000"
       id="linearGradient868"
       gradientUnits="objectBoundingBox"
       spreadMethod="pad">
      <stop
         style="stop-color:#fffdf3;stop-opacity:1;"
         offset="0.000000"
         id="stop869" />
      <stop
         style="stop-color:#99978c;stop-opacity:1;"
         offset="1.000000"
         id="stop870" />
    </linearGradient>
    <linearGradient
       x1="0.01639378"
       y1="0.01562676"
       x2="0.90983599"
       y2="0.73437506"
       id="linearGradient871"
       xlink:href="#linearGradient868"
       gradientUnits="objectBoundingBox"
       spreadMethod="pad" />
    <radialGradient
       cx="0.87121218"
       cy="0.94531250"
       fx="0.87121218"
       fy="0.94531250"
       r="1.14562058"
       id="radialGradient872"
       xlink:href="#linearGradient868"
       gradientUnits="objectBoundingBox"
       spreadMethod="pad" />
    <linearGradient
       x1="0.01999614"
       y1="0.03126721"
       x2="1.50000000"
       y2="2.03125000"
       id="linearGradient875"
       xlink:href="#linearGradient868"
       gradientUnits="objectBoundingBox"
       spreadMethod="pad" />
    <linearGradient
       x1="0.00000000"
       y1="0.00000000"
       x2="1.00000000"
       y2="0.00000000"
       id="linearGradient876"
       xlink:href="#linearGradient877"
       gradientUnits="objectBoundingBox"
       spreadMethod="pad" />
    <radialGradient
       cx="0.91176462"
       cy="0.96875000"
       fx="0.91176462"
       fy="0.96875000"
       r="1.07618439"
       id="radialGradient880"
       xlink:href="#linearGradient877"
       gradientUnits="objectBoundingBox"
       spreadMethod="pad" />
    <radialGradient
       cx="0.70313030"
       cy="0.82820988"
       fx="0.70313030"
       fy="0.82820988"
       r="1.29444408"
       id="radialGradient881"
       xlink:href="#linearGradient877"
       gradientUnits="objectBoundingBox"
       spreadMethod="pad" />
    <radialGradient
       xlink:href="#linearGradient877"
       id="radialGradient642" />
  </defs>
  <path
     d="M 594.355 308.803 C 592.587 573.461 231.68 663.632 40.0818 640.963 C 325.566 470.389 60.563 524.526 53.4919 308.803 C 53.4919 160.509 174.645 40.1546 323.924 40.1546 C 473.202 40.1546 594.355 160.509 594.355 308.803 z "
     transform="matrix(0.923420,0.000000,0.000000,0.829356,46.92768,38.75790)"
     style="font-size:12;fill:#545147;fill-rule:evenodd;stroke:none;stroke-width:26.1855;fill-opacity:1;opacity:0.499125;"
     id="path641" />
  <path
     d="M 594.355 308.803 C 592.587 573.461 231.68 663.632 40.0818 640.963 C 325.566 470.389 60.563 524.526 53.4919 308.803 C 53.4919 160.509 174.645 40.1546 323.924 40.1546 C 473.202 40.1546 594.355 160.509 594.355 308.803 z "
     transform="matrix(0.923420,0.000000,0.000000,0.829356,27.91786,21.64406)"
     style="font-size:12;fill:url(#radialGradient872);fill-rule:evenodd;stroke:#3f3d33;stroke-width:28.5673;stroke-opacity:1;stroke-dasharray:none;"
     id="path864" />
  <ellipse
     cx="333.750031"
     cy="231.249939"
     rx="31.250000"
     ry="133.750031"
     transform="matrix(1.088223,0.000000,0.000000,0.859022,-35.62339,31.97060)"
     style="font-size:12;fill:url(#radialGradient880);fill-rule:evenodd;stroke:#3f3d33;stroke-width:11.8114;stroke-opacity:1;"
     id="path866" />
  <ellipse
     cx="336.250031"
     cy="443.749969"
     rx="31.250000"
     ry="31.250000"
     transform="matrix(0.971628,0.000000,0.000000,0.859022,-0.353303,31.97060)"
     style="font-size:12;fill:url(#radialGradient881);fill-rule:evenodd;stroke:#3f3d33;stroke-width:12.5;stroke-opacity:1;"
     id="path867" />
  <path
     d="M 176.25 400 C 160 393.75 56.25 328.75 130 192.5 C 176.25 105 276.25 66.2499 406.25 87.4999 C 250 93.7499 186.334 172.639 162.5 221.25 C 143.368 262.821 145 343.75 176.25 400 z "
     style="font-size:12;opacity:0.65;fill:url(#linearGradient871);fill-rule:evenodd;stroke:#ffffff;stroke-width:1pt;"
     id="path873"
     transform="matrix(0.971628,0.000000,0.000000,0.971628,3.290301,1.558952)" />
  <path
     d="M 151.25 545 C 151.25 545 193.763 523.353 205 505 C 215.972 489.121 211.47 471.708 213.75 452.5 C 218.981 471.856 227.5 493.75 220 510 C 212.5 526.25 155 546.25 151.25 545 z "
     style="font-size:12;opacity:0.65;fill:url(#linearGradient875);fill-rule:evenodd;stroke:#ffffff;stroke-width:1pt;"
     id="path874"
     transform="matrix(0.971628,0.000000,0.000000,0.971628,3.290301,1.558952)" />
</svg>
